<svg id="Layer_1" data-name="Layer 1" xmlns="http://www.w3.org/2000/svg" viewBox="0 0 200.18 50.49"><defs><style>.cls-1{fill:#0b395b;}.cls-2{fill:#0274e8;}.cls-3{fill:#25b5f3;}</style></defs><path class="cls-1" d="M11.34,32.53a8.71,8.71,0,0,0,2.74,2.92q-3.21,8.2-6.47,16.35H3.69C6.13,45.41,8.83,39,11.34,32.53" transform="translate(-3.69 -1.3)"/><path class="cls-2" d="M18.59,33s-5.31-.47-6.63-2A7.12,7.12,0,0,0,16,35.51a15.34,15.34,0,0,0,2.25.91,28.74,28.74,0,0,0,6.22.82c3.41.17,6.87.14,10.29.39a21.89,21.89,0,0,1,4.46.89,8.64,8.64,0,0,1,3.38,1.83l.33.31A19.1,19.1,0,0,0,40.13,37a9.4,9.4,0,0,0-3.76-2c-2.95-.87-6-1-9.69-1.41" transform="translate(-3.69 -1.3)"/><path class="cls-3" d="M3.79,21.82a4.56,4.56,0,0,0,1,1.05,14.19,14.19,0,0,0,4.69,1.69c1.76.44,3.54.62,5.35,1,6.94,1.31,15,2.28,20.72,4.73,3,1.27,4.63,3.76,6.18,6.79l-.38-.34c-2-2-5.78-3.12-9.29-3.56-1.89-.24-3.71-.48-5.62-.66s-3.69-.3-5.58-.5A34,34,0,0,1,10,29.41a11.06,11.06,0,0,1-5.35-4.85A8.06,8.06,0,0,1,3.81,22Z" transform="translate(-3.69 -1.3)"/><path class="cls-1" d="M61,17.41l-3.49,8h7Zm4.9,11.29H56.08l-1.61,3.53H50.64L61,9.81c1.78,3.95,10.35,22.42,10.35,22.42H67.47Z" transform="translate(-3.69 -1.3)"/><path class="cls-1" d="M75.92,15.29v3.76h3.64v2.81H75.89v5.71a1.65,1.65,0,0,0,1.72,1.88A3.61,3.61,0,0,0,79.19,29l.91,2.79a7.31,7.31,0,0,1-2.71.57c-2.87.1-4.74-1.53-4.74-4.83V21.86H70.18V19.05h2.47V15.64Z" transform="translate(-3.69 -1.3)"/><rect class="cls-1" x="78.31" y="12.19" width="3.24" height="18.74"/><path class="cls-1" d="M90.66,25.61a3.78,3.78,0,0,0,3.91,4c5.15,0,5.15-8,0-8a3.76,3.76,0,0,0-3.91,4M98.6,19h3.13V32.23H98.65l-.16-1.93c-.75,1.56-2.82,2.31-4.29,2.34-3.91,0-6.81-2.39-6.81-7s3-6.94,6.89-6.91a4.86,4.86,0,0,1,4.21,2.14Z" transform="translate(-3.69 -1.3)"/><path class="cls-1" d="M114.22,32.24V25.32c0-2-1.1-3.54-3.19-3.54a3.47,3.47,0,0,0-3.37,3.7v6.76h-3.25V19h2.92l.22,1.8a6,6,0,0,1,4.34-2c3.11,0,5.6,2.33,5.6,6.48v7Z" transform="translate(-3.69 -1.3)"/><path class="cls-1" d="M124.36,15.29v3.76H128v2.81h-3.67v5.71a1.65,1.65,0,0,0,1.72,1.88,3.68,3.68,0,0,0,1.58-.41l.91,2.79a7.31,7.31,0,0,1-2.71.57c-2.87.1-4.74-1.53-4.74-4.83V21.86h-2.47V19.05h2.47V15.64Z" transform="translate(-3.69 -1.3)"/><path class="cls-1" d="M130.44,32.23h3.27V19h-3.27ZM134,15.29a1.93,1.93,0,0,1-3.86,0,1.93,1.93,0,0,1,3.86,0" transform="translate(-3.69 -1.3)"/><path class="cls-1" d="M148,30.55a6.81,6.81,0,0,1-5.09,2.09c-3.84,0-7-2.31-7-7s3.19-7,7-7a6.29,6.29,0,0,1,4.77,2l-2.07,2.17a4,4,0,0,0-2.65-1,3.72,3.72,0,0,0-3.81,3.91,3.6,3.6,0,0,0,3.76,3.86,3.94,3.94,0,0,0,2.89-1.1Z" transform="translate(-3.69 -1.3)"/><path class="cls-1" d="M158.48,28.94h5.42c1.44,0,3.51-.48,3.51-2.25s-2.07-2.58-3.51-2.58h-5.42Zm0-7.94h5.42c2.22,0,2.94-.93,2.94-2,0-.85-.69-2.3-2.94-2.3h-5.42Zm11.88-2.09a3.82,3.82,0,0,1-2.44,3.62,4.58,4.58,0,0,1,3,4.18c0,4.18-3.14,5.52-7,5.52H155V13.47h8.9c3.69,0,6.46,1.66,6.46,5.44" transform="translate(-3.69 -1.3)"/><path class="cls-1" d="M175.72,25.61a3.78,3.78,0,0,0,3.91,4c5.15,0,5.15-8,0-8a3.76,3.76,0,0,0-3.91,4M183.65,19h3.14V32.23h-3.08l-.17-1.93c-.75,1.56-2.81,2.31-4.28,2.34-3.92,0-6.81-2.39-6.81-7s3-6.94,6.89-6.91a4.85,4.85,0,0,1,4.2,2.14Z" transform="translate(-3.69 -1.3)"/><polygon class="cls-1" points="195 17.72 192.59 23.51 191.22 27.15 189.96 23.43 187.95 17.72 184.14 17.72 189.42 30.72 186.96 36.45 190.55 36.45 198.62 17.72 195 17.72"/><path class="cls-3" d="M182.26,45.74V42.68a2.31,2.31,0,0,0,1.91.82,2.79,2.79,0,0,0,2.88-3,2.86,2.86,0,0,0-2.93-3,2.28,2.28,0,0,0-1.86.92l-.09-.79h-1.32v8.1ZM184,42.13a1.58,1.58,0,0,1-1.62-1.63,1.63,1.63,0,0,1,3.25,0A1.59,1.59,0,0,1,184,42.13m-10.07-4.49v3c0,1.78,1,2.81,2.36,2.81a2.55,2.55,0,0,0,1.94-.86l.09.78h1.27V37.64h-1.41v2.92a1.5,1.5,0,0,1-1.46,1.6,1.37,1.37,0,0,1-1.38-1.53v-3Zm-4,1.17a1.61,1.61,0,0,1,1.55,1.69,1.56,1.56,0,1,1-3.1,0A1.57,1.57,0,0,1,170,38.81m0-1.29a3,3,0,1,0,3,3,2.87,2.87,0,0,0-3-3m-7.72.12v5.72h1.41v-3a1.33,1.33,0,0,1,1.43-1.45,1.43,1.43,0,0,1,1,.37l.64-1.23a2.22,2.22,0,0,0-1.48-.54,1.68,1.68,0,0,0-1.61.81l-.1-.66Zm-1.37-1.39a4.28,4.28,0,0,0-3-1.24,4.13,4.13,0,0,0-4.29,4.39,3.91,3.91,0,0,0,4.29,4.14,4,4,0,0,0,3.24-1.46V38.66h-3.48V40h2.08v1.44a2.72,2.72,0,0,1-1.84.65A2.57,2.57,0,0,1,155,39.4a2.76,2.76,0,0,1,2.79-3,3.14,3.14,0,0,1,2.07.81Zm-15,3.58a1.54,1.54,0,0,1,1.6-1.11A1.32,1.32,0,0,1,149,39.83ZM150.33,41c.22-2.35-1-3.53-2.89-3.53a3,3,0,1,0,.11,6,3.51,3.51,0,0,0,2.46-.93l-.91-.89a2.38,2.38,0,0,1-1.53.53c-1,0-1.61-.51-1.7-1.22Zm-9.46-2.26a1.5,1.5,0,0,1,1.48,1.61,1.49,1.49,0,1,1-3,0,1.5,1.5,0,0,1,1.5-1.61m1.31-1a2.25,2.25,0,0,0-1.31-.33,2.79,2.79,0,0,0-2.9,2.9,2.67,2.67,0,0,0,2.9,2.88c.71,0,1.45.36,1.45,1.15a1.29,1.29,0,0,1-1.45,1.23,1.36,1.36,0,0,1-1.5-1.23H138a2.63,2.63,0,0,0,2.9,2.55,2.57,2.57,0,0,0,2.86-2.55,1.92,1.92,0,0,0-1.18-1.89,2.28,2.28,0,0,0,1.21-2.14,2.41,2.41,0,0,0-.61-1.69l.64-.81-1-.79Zm-8.21,1a1.74,1.74,0,0,1,0,3.47,1.74,1.74,0,0,1,0-3.47m1.69-.33a2.08,2.08,0,0,0-1.82-.93,2.78,2.78,0,0,0-3,3,2.77,2.77,0,0,0,2.95,3,2.16,2.16,0,0,0,1.85-1l.07.84h1.34V37.64h-1.36Zm-8.27.31a1.5,1.5,0,0,1,1.48,1.61,1.49,1.49,0,1,1-3,0,1.5,1.5,0,0,1,1.5-1.61m1.31-1a2.27,2.27,0,0,0-1.31-.33,2.79,2.79,0,0,0-2.9,2.9,2.67,2.67,0,0,0,2.9,2.88c.7,0,1.44.36,1.44,1.15a1.28,1.28,0,0,1-1.44,1.23,1.35,1.35,0,0,1-1.5-1.23h-1.4a2.63,2.63,0,0,0,2.9,2.55,2.58,2.58,0,0,0,2.86-2.55,1.92,1.92,0,0,0-1.18-1.89,2.27,2.27,0,0,0,1.2-2.14,2.44,2.44,0,0,0-.6-1.69l.64-.81-1.05-.79Zm-8-1.6v1.47h-1.07v1.22h1.07v2.47a1.85,1.85,0,0,0,2,2.09,3.36,3.36,0,0,0,1.17-.25l-.39-1.2a1.67,1.67,0,0,1-.68.17.71.71,0,0,1-.75-.81V38.87h1.59V37.65h-1.58V36Zm-6,1.46v5.72h1.41v-3a1.33,1.33,0,0,1,1.43-1.45,1.43,1.43,0,0,1,1,.37l.64-1.23a2.19,2.19,0,0,0-1.47-.54,1.69,1.69,0,0,0-1.62.81l-.1-.66Zm-4,1.17a1.61,1.61,0,0,1,1.55,1.69,1.56,1.56,0,1,1-3.11,0,1.57,1.57,0,0,1,1.56-1.69m0-1.29a3,3,0,1,0,3,3,2.9,2.9,0,0,0-3-3m-5.55,5.85h1.53V35.25H105l-2.54,3.49-2.54-3.49H98.18v8.12h1.53v-5.9L102.29,41h.31l2.64-3.52Z" transform="translate(-3.69 -1.3)"/><path class="cls-1" d="M43.69,51.8h3.92c-.7-1.64-1.34-3.31-2-5s-1.24-3.66-2.49-5.07a8.81,8.81,0,0,0-5-2.61,31.64,31.64,0,0,0-6.87-.59l-8.08-.14c-2.78,0-5.94-.48-7.43-1.9a7.52,7.52,0,0,0,4.79,5,17,17,0,0,0,2.35.77,28.89,28.89,0,0,0,6.3.45c1.3,0,2.59,0,3.88-.08,1.63,0,3.38-.33,5,.19,2,.66,2.92,2.53,3.75,4.28Z" transform="translate(-3.69 -1.3)"/><path class="cls-1" d="M30.27,7.8c-.4-1-2.05-4.86-2.05-4.86A2.82,2.82,0,0,0,24.41,1.6,3.11,3.11,0,0,0,23,3.39L21.81,6.33c-2.46,6.05-5,12.43-7.27,18.25,1.17.21,2.4.4,3.57.61,2.56-6.7,5.4-13.1,7.62-20.14,2.73,8.18,5.93,15.89,8.84,23.89,2,.85,4.17,1.71,5.36,3.37C36.84,24.1,33.46,15.94,30.27,7.8Z" transform="translate(-3.69 -1.3)"/><path class="cls-1" d="M201.77,32.23a2.15,2.15,0,1,1,2.1-2.15A2,2,0,0,1,201.77,32.23Zm0-3.91a1.63,1.63,0,0,0-1.66,1.76,1.68,1.68,0,1,0,1.66-1.76Zm.08.79c.48,0,.79.27.79.67a.62.62,0,0,1-.34.58l.37.53V31h-.44l-.36-.52h-.47V31H201V29.11Zm-.45.4v.56h.44c.21,0,.36-.09.36-.28s-.13-.28-.36-.28Z" transform="translate(-3.69 -1.3)"/></svg>